# xmcd
# 
# Track frame offsets:
#     150
#     675
#     24415
#     46845
#     77281
#     98785
#     120153
#     143530
#     169754
#     197444
#     212161
#     221947
#     244364
#     270921
#     276734
# 
# Disc length: 3937
# 
# Revision: 2
# Processed by: cddbd v1.5.2PL0 Copyright (c) Steve Scherf et al.
# Submitted via: fre:ac v1.1beta1pre5
# 
DISCID=c70f5f0f
DTITLE=Karin Fossum - Svarta sekunder
DYEAR=2002
DGENRE=Audiobook
TTITLE0=CD06 - Svarta sekunder
TTITLE1=CD06 - Svarta sekunder
TTITLE2=CD06 - Svarta sekunder
TTITLE3=CD06 - Svarta sekunder
TTITLE4=CD06 - Svarta sekunder
TTITLE5=CD06 - Svarta sekunder
TTITLE6=CD06 - Svarta sekunder
TTITLE7=CD06 - Svarta sekunder
TTITLE8=CD06 - Svarta sekunder
TTITLE9=CD06 - Svarta sekunder
TTITLE10=CD06 - Svarta sekunder
TTITLE11=CD06 - Svarta sekunder
TTITLE12=CD06 - Svarta sekunder
TTITLE13=CD06 - Svarta sekunder
TTITLE14=CD06 - Svarta sekunder
EXTD=
EXTT0=
EXTT1=
EXTT2=
EXTT3=
EXTT4=
EXTT5=
EXTT6=
EXTT7=
EXTT8=
EXTT9=
EXTT10=
EXTT11=
EXTT12=
EXTT13=
EXTT14=
PLAYORDER=
